<svg width="15" height="32" viewBox="0 0 15 32" fill="none" xmlns="http://www.w3.org/2000/svg">
<path d="M15 3.16737L3.68296 12.9686C3.25468 13.3233 2.91123 13.7751 2.67922 14.289C2.44721 14.8029 2.33288 15.3651 2.34509 15.932L2.34509 16.0589C2.33288 16.6258 2.44721 17.188 2.67922 17.7019C2.91123 18.2158 3.25468 18.6677 3.68296 19.0224L15 28.8281L15 32L2.16963 20.8779C1.48109 20.2954 0.928513 19.56 0.55298 18.7265C0.177446 17.893 -0.0113849 16.9827 0.00053007 16.0634L0.000530064 15.9366C-0.0105395 15.0176 0.178447 14.1079 0.553515 13.2745C0.928583 12.4412 1.48015 11.7056 2.16744 11.1221L15 -6.55671e-07L15 3.16737Z" fill="#569F86"/>
</svg>
