<svg width="33" height="16" viewBox="0 0 33 16" fill="none" xmlns="http://www.w3.org/2000/svg">
<path d="M3.21391 -6.50362e-07L13.1593 11.8077C13.5192 12.2546 13.9777 12.6129 14.4991 12.855C15.0206 13.0971 15.5911 13.2164 16.1664 13.2036L16.2951 13.2036C16.8704 13.2164 17.4408 13.0971 17.9623 12.855C18.4838 12.6129 18.9422 12.2546 19.3022 11.8077L29.2521 1.62597e-06L32.4707 1.90735e-06L21.185 13.3867C20.5939 14.1051 19.8477 14.6816 19.0019 15.0734C18.1561 15.4652 17.2325 15.6623 16.2997 15.6498L16.1709 15.6498C15.2385 15.6614 14.3154 15.4642 13.4698 15.0729C12.6242 14.6815 11.8777 14.1061 11.2856 13.389L-5.9667e-05 -9.31336e-07L3.21391 -6.50362e-07Z" fill="#569F86"/>
</svg>
