<svg width="45" height="46" viewBox="0 0 45 46" fill="none" xmlns="http://www.w3.org/2000/svg">
<path fill-rule="evenodd" clip-rule="evenodd" d="M43 2.5H2V43.5H43V2.5ZM0 0.5V45.5H45V0.5H0Z" fill="#959595"/>
<path fill-rule="evenodd" clip-rule="evenodd" d="M16.2929 12.6569L22.6569 6.29289C23.0474 5.90237 23.6805 5.90237 24.0711 6.29289L30.435 12.6569C30.8256 13.0474 30.8256 13.6805 30.435 14.0711C30.0445 14.4616 29.4113 14.4616 29.0208 14.0711L24.364 9.41421L24.364 17C24.364 17.5523 23.9162 18 23.364 18C22.8117 18 22.364 17.5523 22.364 17L22.364 9.41421L17.7071 14.0711C17.3166 14.4616 16.6834 14.4616 16.2929 14.0711C15.9024 13.6805 15.9024 13.0474 16.2929 12.6569Z" fill="#959595"/>
<path fill-rule="evenodd" clip-rule="evenodd" d="M30.4356 33.8431L24.0717 40.2071C23.6811 40.5976 23.048 40.5976 22.6574 40.2071L16.2935 33.8431C15.903 33.4526 15.903 32.8195 16.2935 32.4289C16.684 32.0384 17.3172 32.0384 17.7077 32.4289L22.3646 37.0858L22.3646 29.5C22.3646 28.9477 22.8123 28.5 23.3646 28.5C23.9168 28.5 24.3646 28.9477 24.3646 29.5L24.3646 37.0858L29.0214 32.4289C29.4119 32.0384 30.0451 32.0384 30.4356 32.4289C30.8261 32.8195 30.8261 33.4526 30.4356 33.8431Z" fill="#959595"/>
</svg>
