<svg width="16" height="33" viewBox="0 0 16 33" fill="none" xmlns="http://www.w3.org/2000/svg">
<path d="M15.6504 3.21397L3.84265 13.1593C3.3958 13.5193 3.03746 13.9777 2.79539 14.4992C2.55332 15.0207 2.43403 15.5912 2.44677 16.1664L2.44677 16.2952C2.43403 16.8704 2.55332 17.4409 2.79539 17.9624C3.03746 18.4838 3.3958 18.9423 3.84265 19.3022L15.6504 29.2522L15.6504 32.4708L2.26371 21.1851C1.54531 20.594 0.968773 19.8478 0.576957 19.002C0.18514 18.1562 -0.0118785 17.2326 0.000553073 16.2997L0.000553068 16.171C-0.0109964 15.2385 0.186184 14.3154 0.577515 13.4698C0.968846 12.6242 1.54432 11.8778 2.26142 11.2857L15.6504 -6.841e-07L15.6504 3.21397Z" fill="white"/>
</svg>
