<svg width="15" height="32" viewBox="0 0 15 32" fill="none" xmlns="http://www.w3.org/2000/svg">
<path d="M-1.26031e-06 28.8326L11.317 19.0314C11.7453 18.6767 12.0888 18.2249 12.3208 17.711C12.5528 17.1971 12.6671 16.6349 12.6549 16.068L12.6549 15.9411C12.6671 15.3742 12.5528 14.812 12.3208 14.2981C12.0888 13.7842 11.7453 13.3323 11.317 12.9776L-1.38648e-07 3.17191L0 -6.55671e-07L12.8304 11.1221C13.5189 11.7046 14.0715 12.44 14.447 13.2735C14.8226 14.107 15.0114 15.0173 14.9995 15.9366L14.9995 16.0634C15.0105 16.9824 14.8216 17.8921 14.4465 18.7255C14.0714 19.5588 13.5199 20.2944 12.8326 20.8779L-1.39876e-06 32L-1.26031e-06 28.8326Z" fill="#569F86"/>
</svg>
