<svg width="23" height="23" viewBox="0 0 23 23" fill="none" xmlns="http://www.w3.org/2000/svg">
<path d="M22.9962 11.5034C22.9962 15.2492 22.9962 18.995 22.9962 22.7409C22.9962 22.9939 23.0502 22.9982 22.7432 22.9982C20.9652 22.9982 19.187 22.9982 17.4086 22.9982C14.1658 22.9982 10.9233 22.9982 7.68123 22.9982C5.21163 22.9982 2.74185 22.9982 0.271883 22.9982C-0.0291298 22.9982 0.00809254 23.0155 0.00755309 22.7387C0.00539529 19.5054 0.00395584 16.2718 0.00323657 13.0378C0.00323657 9.27866 0.00431699 5.51987 0.00647479 1.76145C0.00647479 1.23162 0.0064734 0.701253 0 0.171426C0 0.0451736 0.0356046 -0.000683548 0.16777 -0.000144009C1.96594 0.00381261 3.76213 0.00507522 5.55634 0.00363645C6.77765 0.00363645 7.99951 0.00362855 9.22083 0.00902394C9.30402 0.0120532 9.38371 0.0432592 9.44685 0.0975157C10.484 1.05718 11.5189 2.01989 12.5514 2.98567C13.2113 3.60074 13.8711 4.21563 14.5306 4.83035C14.6035 4.89833 14.6121 4.94256 14.5306 5.01109C13.9297 5.50962 13.3309 6.01068 12.7343 6.51425C12.655 6.58061 12.6064 6.53853 12.5514 6.48673C12.0591 6.0274 11.5665 5.56843 11.0738 5.10983C10.1007 4.20628 9.12624 3.30381 8.15056 2.40242C8.08058 2.34254 7.9923 2.30828 7.90025 2.3053C6.09039 2.29937 4.28108 2.30045 2.47122 2.29722C2.35092 2.29722 2.30399 2.33444 2.30453 2.45908C2.30453 4.44818 2.30453 6.43781 2.30453 8.42799C2.30453 10.943 2.30453 13.4579 2.30453 15.9729C2.30453 17.4861 2.30453 18.9997 2.30453 20.5137C2.30453 20.6879 2.31208 20.6955 2.48687 20.6955C4.67416 20.6955 6.86127 20.6955 9.0482 20.6955C9.189 20.6955 9.19763 20.6286 9.19763 20.5218C9.19763 19.1114 9.19763 17.7012 9.19763 16.2912C9.19763 15.5186 9.19439 14.746 9.2014 13.9712C9.2014 13.8358 9.16958 13.7942 9.03094 13.7953C8.3836 13.8018 7.73626 13.7953 7.08892 13.7953C6.91306 13.7953 6.90874 13.7921 6.9082 13.6135C6.9082 12.9623 6.9082 12.3111 6.90496 11.6598C6.90496 11.5347 6.93625 11.4904 7.07003 11.4904C9.26128 11.4944 11.4527 11.4944 13.6443 11.4904C13.7776 11.4904 13.8121 11.5352 13.811 11.6609C13.8053 12.317 13.8042 12.9727 13.8078 13.6281C13.8078 13.7597 13.7571 13.798 13.6319 13.7975C12.9765 13.7937 12.3205 13.7975 11.6651 13.7975C11.5459 13.7975 11.5032 13.8207 11.5032 13.9513C11.5072 16.1385 11.5072 18.3256 11.5032 20.5126C11.5032 20.6922 11.5032 20.6928 11.6807 20.6928H20.5045C20.6944 20.6928 20.7009 20.6852 20.7014 20.4953V14.0057C20.7014 13.8018 20.7014 13.8023 20.5002 13.8029C19.8626 13.8029 19.2249 13.8029 18.5873 13.8029C18.4001 13.8029 18.399 13.7996 18.399 13.6157C18.399 12.9644 18.399 12.3132 18.3958 11.662C18.3958 11.5347 18.4287 11.4926 18.5576 11.4937C19.2087 11.5001 19.8599 11.4974 20.511 11.498C20.696 11.498 20.6965 11.498 20.6965 11.3118C20.6965 8.36558 20.6965 5.41917 20.6965 2.47257C20.6965 2.30531 20.6868 2.29668 20.5072 2.29668H16.3038C16.0956 2.29668 16.094 2.29667 16.094 2.08679C16.094 1.45409 16.094 0.820853 16.094 0.187074C16.094 0.00632888 16.0994 0.000396057 16.2865 0.000396057H22.5916C22.6456 0.000396057 22.6995 0.000396057 22.7535 0.000396057C22.9984 -0.00284118 22.9978 -0.00283539 22.9978 0.235641V11.4996L22.9962 11.5034Z" fill="white"/>
</svg>
