<svg width="660" height="36" viewBox="0 0 660 36" fill="none" xmlns="http://www.w3.org/2000/svg">
<path d="M361.103 35.4977L338.546 8.71724C337.73 7.70377 336.69 6.89103 335.507 6.34201C334.325 5.79299 333.031 5.52243 331.726 5.55133H331.434C330.129 5.52243 328.835 5.79299 327.653 6.34201C326.47 6.89103 325.43 7.70377 324.614 8.71724L302.047 35.4977H294.747L320.343 5.13613C321.684 3.50678 323.376 2.19917 325.295 1.31052C327.213 0.42186 329.308 -0.0249863 331.424 0.00320912H331.716C333.83 -0.0229855 335.924 0.424227 337.842 1.31178C339.76 2.19934 341.453 3.50454 342.796 5.13094L368.392 35.4977H361.103Z" fill="#292929"/>
<path d="M132.805 0.00195312C132.805 0.00195312 127.069 0.00195312 122.59 2.85646L77.7169 31.2666V0.00195312H72.1325V34.8062L72.0908 34.8321H77.7169C80.3943 34.7268 83.0004 33.9426 85.2879 32.5537L131.543 3.52597V34.8477H137.127V0.00195312H132.805Z" fill="#292929"/>
<path d="M655.656 0.00195312C655.656 0.00195312 649.92 0.00195312 645.441 2.85646L600.568 31.2666V0.00195312H594.984V34.8062L594.947 34.8321H600.568C603.246 34.7268 605.852 33.9426 608.139 32.5537L654.41 3.52597V34.8477H659.999V0.00195312H655.656Z" fill="#292929"/>
<path d="M45.8899 0.00259519H0.00521927C0.00521927 0.00259519 0.0052133 5.56628 10.3136 5.56628H45.8952C47.5238 5.53282 49.1428 5.82323 50.6573 6.42048C52.1718 7.01773 53.5513 7.90981 54.715 9.04447C55.8788 10.1791 56.8033 11.5336 57.4344 13.0284C58.0656 14.5232 58.3907 16.1284 58.3907 17.7498C58.3907 19.3713 58.0656 20.9765 57.4344 22.4713C56.8033 23.9661 55.8788 25.3205 54.715 26.4552C53.5513 27.5898 52.1718 28.4819 50.6573 29.0792C49.1428 29.6764 47.5238 29.9668 45.8952 29.9334H10.2198C0.00521728 29.9697 0 35.497 0 35.497H45.8847C48.2518 35.5373 50.6033 35.1081 52.802 34.2343C55.0007 33.3605 57.0025 32.0597 58.6908 30.4077C60.3791 28.7557 61.72 26.7857 62.6354 24.6124C63.5507 22.4392 64.0221 20.1063 64.0221 17.7498C64.0221 15.3934 63.5507 13.0605 62.6354 10.8872C61.72 8.714 60.3791 6.74394 58.6908 5.09196C57.0025 3.43999 55.0007 2.13915 52.802 1.26536C50.6033 0.391571 48.2518 -0.0376983 45.8847 0.00259519H45.8899Z" fill="#292929"/>
<path d="M439.43 10.7262V10.2746C439.423 7.55496 438.335 4.94856 436.403 3.02497C434.472 1.10139 431.854 0.0170094 429.121 0.00878906H375.718V0.138539C375.796 0.963751 376.641 5.57248 386.021 5.57248H429.273C430.525 5.589 431.72 6.10024 432.595 6.99374C433.469 7.88725 433.951 9.08982 433.934 10.3369C433.917 11.584 433.404 12.7734 432.506 13.6436C431.608 14.5137 430.4 14.9933 429.147 14.9768H378.08H375.733V35.4981H429.137C431.204 35.4992 433.224 34.8812 434.934 33.7243C436.644 32.5675 437.965 30.9253 438.725 29.0114C439.485 27.0975 439.648 25.0004 439.195 22.9926C438.741 20.9848 437.691 19.1593 436.181 17.7534C438.145 15.9232 439.311 13.401 439.43 10.7262ZM429.22 29.9292H381.302V20.5301H429.236C430.407 20.5681 431.522 21.0362 432.366 21.8441C433.211 22.652 433.724 23.7425 433.809 24.9053C433.809 25.0091 433.809 25.118 433.809 25.227C433.807 26.4508 433.327 27.6259 432.471 28.5042C431.615 29.3825 430.449 29.8953 429.22 29.9344V29.9292Z" fill="#292929"/>
<path d="M587.292 11.8576V11.7902C587.033 8.59171 585.576 5.60687 583.21 3.42755C580.844 1.24823 577.741 0.033573 574.518 0.0244141H523.612C523.612 0.0244141 523.612 5.58291 533.915 5.5881H574.512C576.295 5.59634 578.013 6.25653 579.339 7.44313C580.664 8.62972 581.506 10.2599 581.703 12.0237C581.758 12.5291 581.758 13.039 581.703 13.5444C581.506 15.3082 580.664 16.9384 579.339 18.125C578.013 19.3116 576.295 19.9718 574.512 19.98H533.92C531.188 19.9868 528.569 21.0699 526.637 22.9925C524.704 24.9151 523.615 27.521 523.606 30.2406V35.4981H529.191V30.2199C529.206 28.9794 529.71 27.7945 530.595 26.9207C531.479 26.0469 532.674 25.5542 533.92 25.5489H574.512C575.607 25.5469 576.697 25.4056 577.756 25.1285L577.849 25.1025L578.126 25.0247H578.173L578.407 24.952L578.475 24.9261L578.705 24.8534H578.736C578.825 24.8277 578.912 24.7965 578.997 24.76L579.242 24.6666H579.309C579.471 24.6043 579.654 24.5264 579.831 24.4434L580.097 24.3136L580.352 24.1891L580.603 24.0541L580.848 23.9192L581.15 23.7428L581.364 23.613L581.588 23.4625L581.666 23.4106L581.864 23.2756L582.078 23.12L582.151 23.0681L582.36 22.9123L582.563 22.7514L582.766 22.5802L582.824 22.5335L583.027 22.357L583.199 22.1961L583.277 22.1235L583.444 21.9678L583.637 21.7757L583.872 21.5318L584.065 21.3294L584.268 21.0958L584.435 20.8883L584.602 20.6858L584.654 20.6184L584.8 20.4263L584.967 20.198L585.113 19.9852L585.165 19.9125L585.311 19.6946L585.431 19.4973L585.483 19.4143L585.624 19.1756L585.723 18.9939L585.858 18.7552L585.9 18.6773C585.984 18.5164 586.062 18.3555 586.14 18.1894V18.1479L586.223 17.9611L586.286 17.8209L586.354 17.6601L586.385 17.5822L586.463 17.3798L586.568 17.0944L586.599 17.0165L586.682 16.7726C586.714 16.6792 586.74 16.5909 586.766 16.5027L586.839 16.2536V16.1809L586.901 15.9318V15.8903L586.959 15.6619L587.011 15.4076V15.3038L587.058 15.0495V14.9924L587.105 14.7069C587.105 14.6135 587.131 14.5201 587.141 14.4215L587.178 14.0893C587.178 13.9959 587.178 13.8973 587.178 13.8039C587.178 13.4873 587.214 13.1707 587.214 12.8593C587.214 12.5479 587.313 12.1586 587.292 11.8576Z" fill="#292929"/>
<path d="M201.487 29.9327H165.817C164.188 29.9662 162.569 29.6758 161.054 29.0786C159.54 28.4813 158.16 27.5892 156.997 26.4545C155.833 25.3199 154.908 23.9655 154.277 22.4706C153.646 20.9758 153.321 19.3707 153.321 17.7492C153.321 16.1277 153.646 14.5226 154.277 13.0277C154.908 11.5329 155.833 10.1785 156.997 9.04383C158.16 7.90916 159.54 7.01709 161.054 6.41984C162.569 5.82259 164.188 5.53218 165.817 5.56564H201.414C211.712 5.56564 211.717 0.00195312 211.717 0.00195312H165.832C161.156 0.0815487 156.699 1.98635 153.42 5.30594C150.142 8.62553 148.305 13.0942 148.305 17.7492C148.305 22.4042 150.142 26.8729 153.42 30.1925C156.699 33.5121 161.156 35.4168 165.832 35.4964H211.717C211.717 35.4964 211.701 29.995 201.487 29.9327Z" fill="#292929"/>
<path d="M503.231 29.9379H459.864C458.637 29.8989 457.472 29.3868 456.616 28.5096C455.76 27.6324 455.279 26.4587 455.276 25.2358C455.276 25.132 455.276 25.0178 455.276 24.914C455.36 23.7512 455.874 22.6607 456.719 21.8528C457.563 21.0449 458.678 20.5768 459.849 20.5388H502.793V14.9699H459.974C458.721 14.9844 457.514 14.5029 456.618 13.6313C455.721 12.7597 455.21 11.5694 455.195 10.3223C455.181 9.0752 455.664 7.87346 456.54 6.98141C457.416 6.08937 458.612 5.5801 459.864 5.56564H503.179C511.897 5.56564 513.195 1.52782 513.388 0.334121V0.00195312H459.979C457.246 0.0101793 454.627 1.09528 452.695 3.01999C450.764 4.9447 449.676 7.55242 449.671 10.273C449.671 10.3716 449.671 10.465 449.671 10.5636V10.6726V10.7297C449.795 13.4079 450.967 15.9316 452.935 17.7622C451.424 19.1673 450.373 20.9925 449.919 23.0003C449.465 25.008 449.629 27.1053 450.389 29.0192C451.149 30.9331 452.47 32.575 454.181 33.7312C455.891 34.8874 457.912 35.5042 459.979 35.5016H513.383V35.185C513.19 33.9758 511.891 29.995 503.231 29.9379Z" fill="#292929"/>
<path d="M268.607 17.7518C269.431 17.7518 272.94 17.4248 276.001 13.7918L287.623 0.00195312H280.323L270.635 11.4926C268.846 13.3771 266.396 14.5034 263.794 14.6378H228.176V0.00195312H222.592V34.8321H228.176V20.1963H263.46C264.843 20.2294 266.204 20.544 267.459 21.1206C268.714 21.6973 269.838 22.5237 270.76 23.549L280.271 34.8321H287.571L276.496 21.691C275.528 20.5255 274.326 19.5733 272.968 18.8952C271.61 18.217 270.124 17.8276 268.607 17.7518Z" fill="#292929"/>
<path d="M341.486 25.5692C339.114 25.1537 336.929 24.0218 335.227 22.3273C333.524 20.6327 332.387 18.4576 331.97 16.0975C331.97 16.0369 331.946 15.9788 331.903 15.936C331.86 15.8932 331.801 15.8691 331.74 15.8691C331.679 15.8691 331.621 15.8932 331.578 15.936C331.535 15.9788 331.511 16.0369 331.511 16.0975C331.093 18.4576 329.956 20.6327 328.254 22.3273C326.551 24.0218 324.366 25.1537 321.995 25.5692C321.934 25.5692 321.876 25.5933 321.833 25.6361C321.79 25.679 321.766 25.737 321.766 25.7976C321.766 25.8582 321.79 25.9163 321.833 25.9591C321.876 26.0019 321.934 26.026 321.995 26.026C324.367 26.4408 326.552 27.5724 328.255 29.2671C329.957 30.9618 331.094 33.1373 331.511 35.4977C331.511 35.5583 331.535 35.6164 331.578 35.6592C331.621 35.702 331.679 35.7261 331.74 35.7261C331.801 35.7261 331.86 35.702 331.903 35.6592C331.946 35.6164 331.97 35.5583 331.97 35.4977C332.387 33.1376 333.524 30.9625 335.227 29.2679C336.929 27.5734 339.114 26.4415 341.486 26.026C341.546 26.026 341.605 26.0019 341.648 25.9591C341.691 25.9163 341.715 25.8582 341.715 25.7976C341.715 25.737 341.691 25.679 341.648 25.6361C341.605 25.5933 341.546 25.5692 341.486 25.5692Z" fill="#292929"/>
</svg>
