<svg width="291" height="16" viewBox="0 0 291 16" fill="none" xmlns="http://www.w3.org/2000/svg">
<path d="M159.214 15.6512L149.268 3.84341C148.909 3.39657 148.45 3.03822 147.929 2.79615C147.407 2.55409 146.837 2.43479 146.261 2.44753H146.133C145.557 2.43479 144.987 2.55409 144.465 2.79615C143.944 3.03822 143.486 3.39657 143.126 3.84341L133.176 15.6512H129.957L141.243 2.26447C141.834 1.54607 142.58 0.969536 143.426 0.57772C144.272 0.185904 145.195 -0.0111149 146.128 0.00131672H146.257C147.189 -0.0102327 148.112 0.186948 148.958 0.578279C149.804 0.96961 150.55 1.54509 151.142 2.26218L162.428 15.6512H159.214Z" fill="white"/>
<path d="M58.5544 0.00128174C58.5544 0.00128174 56.0256 0.00128174 54.0508 1.25986L34.2657 13.7861V0.00128174H31.8035V15.3468L31.7852 15.3582H34.2657C35.4462 15.3118 36.5953 14.966 37.6039 14.3536L57.9981 1.55505V15.3651H60.4603V0.00128174H58.5544Z" fill="white"/>
<path d="M289.085 0.00128174C289.085 0.00128174 286.556 0.00128174 284.582 1.25986L264.797 13.7861V0.00128174H262.334V15.3468L262.318 15.3582H264.797C265.977 15.3118 267.126 14.966 268.135 14.3536L288.536 1.55505V15.3651H291V0.00128174H289.085Z" fill="white"/>
<path d="M20.2333 0.00114424H0.00230122C0.00230122 0.00114424 0.00229859 2.45423 4.54738 2.45423H20.2356C20.9537 2.43947 21.6675 2.56752 22.3353 2.83085C23.003 3.09418 23.6113 3.48751 24.1244 3.98779C24.6375 4.48807 25.0451 5.08525 25.3234 5.74433C25.6017 6.40341 25.745 7.11115 25.745 7.82607C25.745 8.54099 25.6017 9.24872 25.3234 9.9078C25.0451 10.5669 24.6375 11.1641 24.1244 11.6643C23.6113 12.1646 23.003 12.558 22.3353 12.8213C21.6675 13.0846 20.9537 13.2127 20.2356 13.1979H4.506C0.00230035 13.2139 0 15.651 0 15.651H20.231C21.2747 15.6687 22.3115 15.4795 23.2809 15.0942C24.2503 14.709 25.133 14.1354 25.8773 13.407C26.6217 12.6787 27.2129 11.8101 27.6165 10.8519C28.0201 9.89366 28.228 8.86507 28.228 7.82607C28.228 6.78708 28.0201 5.75848 27.6165 4.80028C27.2129 3.84208 26.6217 2.97347 25.8773 2.24509C25.133 1.51672 24.2503 0.943173 23.2809 0.55791C22.3115 0.172647 21.2747 -0.0166215 20.231 0.00114424H20.2333Z" fill="white"/>
<path d="M193.748 4.72899V4.5299C193.745 3.33078 193.266 2.18159 192.414 1.33347C191.562 0.485338 190.408 0.00722551 189.203 0.00360107H165.657V0.0608092C165.692 0.424653 166.064 2.45668 170.2 2.45668H189.27C189.822 2.46397 190.349 2.68938 190.735 3.08333C191.12 3.47729 191.333 4.00751 191.325 4.55736C191.318 5.10721 191.092 5.63165 190.696 6.0153C190.3 6.39896 189.767 6.61041 189.215 6.60312H166.699H165.664V15.6511H189.21C190.122 15.6516 191.012 15.3791 191.766 14.8691C192.52 14.359 193.103 13.635 193.438 12.7911C193.773 11.9473 193.845 11.0226 193.645 10.1374C193.445 9.25213 192.982 8.44724 192.316 7.82737C193.182 7.0204 193.696 5.90834 193.748 4.72899ZM189.247 13.1958H168.119V9.05163H189.254C189.77 9.06839 190.262 9.27478 190.634 9.63099C191.006 9.9872 191.233 10.468 191.27 10.9807C191.27 11.0265 191.27 11.0745 191.27 11.1226C191.269 11.6621 191.058 12.1802 190.68 12.5675C190.303 12.9548 189.789 13.1809 189.247 13.1981V13.1958Z" fill="white"/>
<path d="M258.943 5.22781V5.19807C258.829 3.78784 258.186 2.47179 257.143 1.51091C256.1 0.550031 254.732 0.0144753 253.311 0.010437H230.866C230.866 0.010437 230.866 2.46123 235.408 2.46352H253.308C254.094 2.46715 254.852 2.75824 255.436 3.28142C256.021 3.8046 256.392 4.52337 256.478 5.30104C256.503 5.52386 256.503 5.74869 256.478 5.97152C256.392 6.74918 256.021 7.46796 255.436 7.99114C254.852 8.51432 254.094 8.80541 253.308 8.80904H235.411C234.206 8.81206 233.051 9.28959 232.199 10.1373C231.347 10.985 230.867 12.1339 230.863 13.333V15.6511H233.325V13.3239C233.332 12.777 233.554 12.2545 233.945 11.8693C234.335 11.484 234.861 11.2668 235.411 11.2644H253.308C253.791 11.2635 254.271 11.2012 254.738 11.0791L254.78 11.0676L254.901 11.0333H254.922L255.026 11.0013L255.055 10.9898L255.157 10.9578H255.17C255.21 10.9465 255.248 10.9327 255.285 10.9166L255.393 10.8754H255.423C255.495 10.8479 255.575 10.8136 255.653 10.777L255.77 10.7198L255.883 10.6649L255.993 10.6054L256.101 10.5459L256.235 10.4681L256.329 10.4109L256.428 10.3445L256.462 10.3216L256.55 10.2621L256.644 10.1935L256.676 10.1706L256.768 10.1019L256.858 10.031L256.947 9.95549L256.973 9.93489L257.062 9.8571L257.138 9.78615L257.173 9.75412L257.246 9.68547L257.331 9.60079L257.435 9.49325L257.52 9.404L257.61 9.30102L257.683 9.2095L257.757 9.12025L257.78 9.0905L257.844 9.00583L257.918 8.90515L257.982 8.81133L258.005 8.77929L258.069 8.68319L258.122 8.59623L258.145 8.55961L258.207 8.45435L258.251 8.37425L258.311 8.269L258.329 8.23467C258.366 8.16373 258.4 8.09279 258.435 8.01957V8.00126L258.472 7.91888L258.499 7.85709L258.529 7.78615L258.543 7.75184L258.577 7.66259L258.623 7.53673L258.637 7.5024L258.674 7.39486C258.688 7.35367 258.699 7.31476 258.711 7.27586L258.743 7.16603V7.13399L258.771 7.02415V7.00584L258.796 6.90515L258.819 6.79303V6.74726L258.84 6.63513V6.60997L258.86 6.4841C258.86 6.44291 258.872 6.40172 258.876 6.35824L258.892 6.21179C258.892 6.1706 258.892 6.12712 258.892 6.08593C258.892 5.94634 258.909 5.80676 258.909 5.66946C258.909 5.53216 258.952 5.36053 258.943 5.22781Z" fill="white"/>
<path d="M88.8372 13.198H73.1098C72.3917 13.2128 71.6779 13.0848 71.0102 12.8214C70.3424 12.5581 69.7342 12.1648 69.2211 11.6645C68.708 11.1642 68.3004 10.567 68.0221 9.90794C67.7438 9.24886 67.6004 8.54113 67.6004 7.82621C67.6004 7.11129 67.7438 6.40355 68.0221 5.74447C68.3004 5.08539 68.708 4.48821 69.2211 3.98793C69.7342 3.48764 70.3424 3.09432 71.0102 2.83099C71.6779 2.56765 72.3917 2.43961 73.1098 2.45436H88.805C93.3454 2.45436 93.3477 0.00128174 93.3477 0.00128174H73.1167C71.0551 0.0363762 69.0897 0.876219 67.6442 2.33986C66.1987 3.8035 65.3887 5.77379 65.3887 7.82621C65.3887 9.87864 66.1987 11.8489 67.6442 13.3126C69.0897 14.7762 71.0551 15.616 73.1167 15.6511H93.3477C93.3477 15.6511 93.3409 13.2255 88.8372 13.198Z" fill="white"/>
<path d="M221.879 13.2003H202.758C202.217 13.1831 201.703 12.9574 201.326 12.5706C200.949 12.1838 200.737 11.6663 200.735 11.1271C200.735 11.0813 200.735 11.031 200.735 10.9852C200.773 10.4726 200.999 9.99174 201.371 9.63553C201.744 9.27932 202.235 9.07294 202.752 9.05618H221.686V6.6008H202.807C202.254 6.60718 201.722 6.39487 201.327 6.01057C200.932 5.62627 200.706 5.10147 200.7 4.55161C200.693 4.00176 200.907 3.4719 201.293 3.07859C201.679 2.68528 202.206 2.46074 202.758 2.45436H221.856C225.7 2.45436 226.272 0.674052 226.357 0.147738V0.00128174H202.809C201.604 0.00490874 200.449 0.483342 199.598 1.33196C198.746 2.18058 198.266 3.33035 198.264 4.52987C198.264 4.57335 198.264 4.61454 198.264 4.65802V4.70607V4.73125C198.319 5.9121 198.835 7.02481 199.703 7.83192C199.037 8.45146 198.574 9.25621 198.374 10.1414C198.173 11.0267 198.245 11.9514 198.581 12.7953C198.916 13.6391 199.498 14.3631 200.252 14.8728C201.007 15.3826 201.897 15.6546 202.809 15.6534H226.355V15.5138C226.27 14.9806 225.698 13.2255 221.879 13.2003Z" fill="white"/>
<path d="M118.432 7.82734C118.795 7.82734 120.342 7.68319 121.692 6.08136L126.816 0.00128174H123.598L119.326 5.06763C118.537 5.89851 117.457 6.39509 116.31 6.45435H100.606V0.00128174H98.1436V15.3582H100.606V8.90515H116.163C116.772 8.91977 117.372 9.05847 117.926 9.31271C118.479 9.56695 118.975 9.93134 119.382 10.3834L123.575 15.3582H126.793L121.91 9.56418C121.483 9.0503 120.954 8.63049 120.355 8.33147C119.756 8.03246 119.101 7.86077 118.432 7.82734Z" fill="white"/>
<path d="M150.564 11.2736C149.518 11.0904 148.555 10.5913 147.804 9.84416C147.054 9.09701 146.552 8.138 146.368 7.09738C146.368 7.07067 146.358 7.04507 146.339 7.02619C146.32 7.00731 146.294 6.9967 146.267 6.9967C146.24 6.9967 146.215 7.00731 146.196 7.02619C146.177 7.04507 146.166 7.07067 146.166 7.09738C145.982 8.138 145.48 9.09701 144.73 9.84416C143.979 10.5913 143.016 11.0904 141.97 11.2736C141.943 11.2736 141.918 11.2842 141.899 11.3031C141.88 11.3219 141.869 11.3475 141.869 11.3743C141.869 11.401 141.88 11.4266 141.899 11.4455C141.918 11.4643 141.943 11.4749 141.97 11.4749C143.016 11.6578 143.98 12.1568 144.73 12.904C145.481 13.6512 145.982 14.6104 146.166 15.6511C146.166 15.6778 146.177 15.7034 146.196 15.7223C146.215 15.7412 146.24 15.7518 146.267 15.7518C146.294 15.7518 146.32 15.7412 146.339 15.7223C146.358 15.7034 146.368 15.6778 146.368 15.6511C146.552 14.6105 147.054 13.6515 147.804 12.9044C148.555 12.1572 149.518 11.6581 150.564 11.4749C150.591 11.4749 150.616 11.4643 150.635 11.4455C150.654 11.4266 150.665 11.401 150.665 11.3743C150.665 11.3475 150.654 11.3219 150.635 11.3031C150.616 11.2842 150.591 11.2736 150.564 11.2736Z" fill="white"/>
</svg>
