<svg width="660" height="36" viewBox="0 0 660 36" fill="none" xmlns="http://www.w3.org/2000/svg">
<path d="M361.103 35.6573L338.546 8.75644C337.73 7.73841 336.69 6.92202 335.507 6.37053C334.325 5.81904 333.031 5.54726 331.726 5.57629H331.434C330.129 5.54726 328.835 5.81904 327.653 6.37053C326.47 6.92202 325.43 7.73841 324.614 8.75644L302.047 35.6573H294.747L320.343 5.15923C321.684 3.52255 323.376 2.20905 325.295 1.3164C327.213 0.423749 329.308 -0.0251075 331.424 0.00321477H331.716C333.83 -0.0230977 335.924 0.426127 337.842 1.31767C339.76 2.20922 341.453 3.5203 342.796 5.15401L368.392 35.6573H361.103Z" fill="#959595"/>
<path d="M132.805 0.00195312C132.805 0.00195312 127.069 0.00195312 122.59 2.8693L77.7169 31.4072V0.00195312H72.1325V34.9627L72.0908 34.9888H77.7169C80.3943 34.883 83.0004 34.0952 85.2879 32.7001L131.543 3.54182V35.0044H137.127V0.00195312H132.805Z" fill="#959595"/>
<path d="M655.656 0.00195312C655.656 0.00195312 649.92 0.00195312 645.441 2.8693L600.568 31.4072V0.00195312H594.984V34.9627L594.947 34.9888H600.568C603.246 34.883 605.852 34.0952 608.139 32.7001L654.41 3.54182V35.0044H659.999V0.00195312H655.656Z" fill="#959595"/>
<path d="M45.8899 0.00260686H0.00521927C0.00521927 0.00260686 0.0052133 5.59132 10.3136 5.59132H45.8952C47.5238 5.55771 49.1428 5.84942 50.6573 6.44936C52.1718 7.04929 53.5513 7.94538 54.715 9.08515C55.8788 10.2249 56.8033 11.5854 57.4344 13.087C58.0656 14.5885 58.3907 16.2009 58.3907 17.8297C58.3907 19.4584 58.0656 21.0708 57.4344 22.5724C56.8033 24.0739 55.8788 25.4344 54.715 26.5742C53.5513 27.7139 52.1718 28.6101 50.6573 29.21C49.1428 29.8099 47.5238 30.1016 45.8952 30.068H10.2198C0.00521728 30.1045 0 35.6567 0 35.6567H45.8847C48.2518 35.6972 50.6033 35.266 52.802 34.3883C55.0007 33.5105 57.0025 32.2039 58.6908 30.5445C60.3791 28.8851 61.72 26.9062 62.6354 24.7231C63.5507 22.5401 64.0221 20.1968 64.0221 17.8297C64.0221 15.4626 63.5507 13.1192 62.6354 10.9362C61.72 8.75319 60.3791 6.77427 58.6908 5.11487C57.0025 3.45546 55.0007 2.14878 52.802 1.27105C50.6033 0.393332 48.2518 -0.0378679 45.8847 0.00260686H45.8899Z" fill="#959595"/>
<path d="M439.43 10.7744V10.3208C439.423 7.5889 438.335 4.97078 436.403 3.03854C434.472 1.1063 431.854 0.0170464 429.121 0.00878906H375.718V0.139123C375.796 0.968046 376.641 5.5975 386.021 5.5975H429.273C430.525 5.61409 431.72 6.12764 432.595 7.02516C433.469 7.92268 433.951 9.13066 433.934 10.3834C433.917 11.6361 433.404 12.8308 432.506 13.7049C431.608 14.579 430.4 15.0607 429.147 15.0441H378.08H375.733V35.6577H429.137C431.204 35.6588 433.224 35.038 434.934 33.876C436.644 32.7139 437.965 31.0644 438.725 29.1419C439.485 27.2194 439.648 25.1128 439.195 23.096C438.741 21.0792 437.691 19.2454 436.181 17.8332C438.145 15.9948 439.311 13.4612 439.43 10.7744ZM429.22 30.0638H381.302V20.6224H429.236C430.407 20.6606 431.522 21.1308 432.366 21.9423C433.211 22.7538 433.724 23.8492 433.809 25.0172C433.809 25.1215 433.809 25.231 433.809 25.3405C433.807 26.5697 433.327 27.7501 432.471 28.6324C431.615 29.5146 430.449 30.0298 429.22 30.069V30.0638Z" fill="#959595"/>
<path d="M587.292 11.9108V11.8431C587.033 8.63024 585.576 5.63198 583.21 3.44286C580.844 1.25374 577.741 0.0336142 574.518 0.0244141H523.612C523.612 0.0244141 523.612 5.60791 533.915 5.61313H574.512C576.295 5.6214 578.013 6.28456 579.339 7.47649C580.664 8.66842 581.506 10.306 581.703 12.0777C581.758 12.5853 581.758 13.0975 581.703 13.6052C581.506 15.3769 580.664 17.0145 579.339 18.2064C578.013 19.3983 576.295 20.0615 574.512 20.0698H533.92C531.188 20.0766 528.569 21.1646 526.637 23.0958C524.704 25.0271 523.615 27.6446 523.606 30.3765V35.6577H529.191V30.3557C529.206 29.1096 529.71 27.9194 530.595 27.0417C531.479 26.164 532.674 25.6691 533.92 25.6637H574.512C575.607 25.6617 576.697 25.5198 577.756 25.2414L577.849 25.2153L578.126 25.1371H578.173L578.407 25.0642L578.475 25.0381L578.705 24.9651H578.736C578.825 24.9393 578.912 24.9079 578.997 24.8712L579.242 24.7774H579.309C579.471 24.7148 579.654 24.6366 579.831 24.5532L580.097 24.4229L580.352 24.2978L580.603 24.1622L580.848 24.0267L581.15 23.8494L581.364 23.7191L581.588 23.5679L581.666 23.5158L581.864 23.3802L582.078 23.2238L582.151 23.1717L582.36 23.0153L582.563 22.8537L582.766 22.6817L582.824 22.6347L583.027 22.4575L583.199 22.2958L583.277 22.2229L583.444 22.0665L583.637 21.8736L583.872 21.6285L584.065 21.4252L584.268 21.1906L584.435 20.9821L584.602 20.7788L584.654 20.711L584.8 20.5181L584.967 20.2887L585.113 20.075L585.165 20.002L585.311 19.783L585.431 19.5849L585.483 19.5015L585.624 19.2617L585.723 19.0792L585.858 18.8394L585.9 18.7612C585.984 18.5996 586.062 18.438 586.14 18.2711V18.2294L586.223 18.0418L586.286 17.901L586.354 17.7394L586.385 17.6612L586.463 17.4579L586.568 17.1711L586.599 17.0929L586.682 16.8479C586.714 16.7541 586.74 16.6654 586.766 16.5768L586.839 16.3266V16.2536L586.901 16.0034V15.9616L586.959 15.7322L587.011 15.4768V15.3725L587.058 15.1171V15.0597L587.105 14.773C587.105 14.6791 587.131 14.5853 587.141 14.4862L587.178 14.1526C587.178 14.0587 587.178 13.9597 587.178 13.8659C587.178 13.5478 587.214 13.2298 587.214 12.917C587.214 12.6042 587.313 12.2132 587.292 11.9108Z" fill="#959595"/>
<path d="M201.487 30.0674H165.817C164.188 30.101 162.569 29.8093 161.054 29.2093C159.54 28.6094 158.16 27.7133 156.997 26.5735C155.833 25.4338 154.908 24.0732 154.277 22.5717C153.646 21.0702 153.321 19.4578 153.321 17.829C153.321 16.2003 153.646 14.5879 154.277 13.0863C154.908 11.5848 155.833 10.2243 156.997 9.08449C158.16 7.94473 159.54 7.04864 161.054 6.4487C162.569 5.84877 164.188 5.55705 165.817 5.59067H201.414C211.712 5.59067 211.717 0.00195312 211.717 0.00195312H165.832C161.156 0.0819067 156.699 1.99527 153.42 5.32979C150.142 8.66431 148.305 13.1531 148.305 17.829C148.305 22.5049 150.142 26.9937 153.42 30.3282C156.699 33.6628 161.156 35.5761 165.832 35.6561H211.717C211.717 35.6561 211.701 30.1299 201.487 30.0674Z" fill="#959595"/>
<path d="M503.231 30.0726H459.864C458.637 30.0334 457.472 29.519 456.616 28.6379C455.76 27.7567 455.279 26.5777 455.276 25.3493C455.276 25.245 455.276 25.1303 455.276 25.0261C455.36 23.858 455.874 22.7626 456.719 21.9511C457.563 21.1396 458.678 20.6694 459.849 20.6312H502.793V15.0373H459.974C458.721 15.0518 457.514 14.5681 456.618 13.6926C455.721 12.817 455.21 11.6214 455.195 10.3687C455.181 9.11601 455.664 7.90886 456.54 7.0128C457.416 6.11675 458.612 5.60519 459.864 5.59067H503.179C511.897 5.59067 513.195 1.53469 513.388 0.335615V0.00195312H459.979C457.246 0.0102163 454.627 1.1002 452.695 3.03357C450.764 4.96693 449.676 7.58638 449.671 10.3192C449.671 10.4182 449.671 10.5121 449.671 10.6111V10.7206V10.778C449.795 13.4682 450.967 16.0032 452.935 17.842C451.424 19.2535 450.373 21.0869 449.919 23.1037C449.465 25.1205 449.629 27.2272 450.389 29.1497C451.149 31.0723 452.47 32.7215 454.181 33.8829C455.891 35.0443 457.912 35.6639 459.979 35.6613H513.383V35.3433C513.19 34.1286 511.891 30.1299 503.231 30.0726Z" fill="#959595"/>
<path d="M268.607 17.8316C269.431 17.8316 272.94 17.5032 276.001 13.8538L287.623 0.00195312H280.323L270.635 11.5443C268.846 13.4373 266.396 14.5686 263.794 14.7036H228.176V0.00195312H222.592V34.9888H228.176V20.2871H263.46C264.843 20.3204 266.204 20.6364 267.459 21.2156C268.714 21.7949 269.838 22.625 270.76 23.6549L280.271 34.9888H287.571L276.496 21.7886C275.528 20.6178 274.326 19.6614 272.968 18.9801C271.61 18.2989 270.124 17.9078 268.607 17.8316Z" fill="#959595"/>
<path d="M341.486 25.6842C339.114 25.2668 336.929 24.1298 335.227 22.4276C333.524 20.7254 332.387 18.5406 331.97 16.1698C331.97 16.1089 331.946 16.0506 331.903 16.0076C331.86 15.9646 331.801 15.9404 331.74 15.9404C331.679 15.9404 331.621 15.9646 331.578 16.0076C331.535 16.0506 331.511 16.1089 331.511 16.1698C331.093 18.5406 329.956 20.7254 328.254 22.4276C326.551 24.1298 324.366 25.2668 321.995 25.6842C321.934 25.6842 321.876 25.7083 321.833 25.7514C321.79 25.7944 321.766 25.8527 321.766 25.9135C321.766 25.9744 321.79 26.0327 321.833 26.0758C321.876 26.1188 321.934 26.1429 321.995 26.1429C324.367 26.5596 326.552 27.6964 328.255 29.3987C329.957 31.101 331.094 33.2862 331.511 35.6573C331.511 35.7181 331.535 35.7765 331.578 35.8195C331.621 35.8625 331.679 35.8867 331.74 35.8867C331.801 35.8867 331.86 35.8625 331.903 35.8195C331.946 35.7765 331.97 35.7181 331.97 35.6573C332.387 33.2865 333.524 31.1017 335.227 29.3995C336.929 27.6973 339.114 26.5603 341.486 26.1429C341.546 26.1429 341.605 26.1188 341.648 26.0758C341.691 26.0327 341.715 25.9744 341.715 25.9135C341.715 25.8527 341.691 25.7944 341.648 25.7514C341.605 25.7083 341.546 25.6842 341.486 25.6842Z" fill="#959595"/>
</svg>
