<svg width="21" height="21" viewBox="0 0 21 21" fill="none" xmlns="http://www.w3.org/2000/svg">
<path fill-rule="evenodd" clip-rule="evenodd" d="M0 0H9.94118V2H3.41421L12.8836 11.4694C13.2741 11.8599 13.2741 12.4931 12.8836 12.8836C12.4931 13.2741 11.8599 13.2741 11.4694 12.8836L2 3.41421V9.94118H0V0Z" fill="#569F86"/>
<path fill-rule="evenodd" clip-rule="evenodd" d="M17.1335 3.19376C16.4943 3.11924 15.6515 3.11765 14.4123 3.11765C13.86 3.11765 13.4123 2.66993 13.4123 2.11765C13.4123 1.56536 13.86 1.11765 14.4123 1.11765L14.4726 1.11765C15.6364 1.11762 16.5964 1.1176 17.3651 1.20722C18.1685 1.30089 18.89 1.50384 19.5082 2.00133C19.7324 2.18172 19.9364 2.38578 20.1168 2.60995C20.6143 3.22818 20.8173 3.9497 20.9109 4.75307C21.0006 5.52172 21.0005 6.48176 21.0005 7.64557V14.0705C21.0006 15.4247 21.0006 16.5413 20.8818 17.4251C20.757 18.3529 20.4851 19.1723 19.8289 19.8284C19.1728 20.4845 18.3534 20.7565 17.4256 20.8812C16.5418 21.0001 15.4252 21 14.0711 21H7.64609C6.48228 21 5.52223 21 4.75359 20.9104C3.95021 20.8168 3.2287 20.6138 2.61047 20.1163C2.3863 19.9359 2.18224 19.7319 2.00184 19.5077C1.50436 18.8895 1.30141 18.168 1.20774 17.3646C1.11812 16.5959 1.11814 15.6359 1.11816 14.4721L1.11817 14.4118C1.11817 13.8595 1.56588 13.4118 2.11817 13.4118C2.67045 13.4118 3.11817 13.8595 3.11817 14.4118C3.11817 15.651 3.11976 16.4938 3.19428 17.1329C3.2663 17.7506 3.39473 18.0485 3.56 18.2538C3.6502 18.3659 3.75223 18.468 3.86432 18.5582C4.0697 18.7234 4.36756 18.8519 4.98522 18.9239C5.62437 18.9984 6.46714 19 7.7064 19H14.0005C15.443 19 16.4243 18.9979 17.1591 18.8991C17.8651 18.8042 18.1922 18.6368 18.4147 18.4142C18.6373 18.1916 18.8047 17.8646 18.8996 17.1586C18.9984 16.4237 19.0005 15.4425 19.0005 14V7.70589C19.0005 6.46662 18.9989 5.62385 18.9244 4.9847C18.8524 4.36704 18.724 4.06918 18.5587 3.8638C18.4685 3.75171 18.3665 3.64968 18.2544 3.55949C18.049 3.39421 17.7511 3.26578 17.1335 3.19376Z" fill="#569F86"/>
</svg>
