<svg width="21" height="21" viewBox="0 0 21 21" fill="none" xmlns="http://www.w3.org/2000/svg">
<path fill-rule="evenodd" clip-rule="evenodd" d="M0 0H9.94118V2H3.41421L12.8836 11.4694C13.2741 11.8599 13.2741 12.4931 12.8836 12.8836C12.4931 13.2741 11.8599 13.2741 11.4694 12.8836L2 3.41421V9.94118H0V0Z" fill="white"/>
<path fill-rule="evenodd" clip-rule="evenodd" d="M17.1325 3.19376C16.4933 3.11924 15.6506 3.11765 14.4113 3.11765C13.859 3.11765 13.4113 2.66993 13.4113 2.11765C13.4113 1.56536 13.859 1.11765 14.4113 1.11765L14.4716 1.11765C15.6354 1.11762 16.5955 1.1176 17.3641 1.20722C18.1675 1.30089 18.889 1.50384 19.5072 2.00133C19.7314 2.18172 19.9355 2.38578 20.1159 2.60995C20.6133 3.22818 20.8163 3.9497 20.91 4.75307C20.9996 5.52172 20.9996 6.48176 20.9995 7.64557V14.0705C20.9996 15.4247 20.9996 16.5413 20.8808 17.4251C20.756 18.3529 20.4841 19.1723 19.828 19.8284C19.1719 20.4845 18.3524 20.7565 17.4246 20.8812C16.5408 21.0001 15.4242 21 14.0701 21H7.64511C6.4813 21 5.52126 21 4.75261 20.9104C3.94924 20.8168 3.22772 20.6138 2.60949 20.1163C2.38532 19.9359 2.18126 19.7319 2.00087 19.5077C1.50338 18.8895 1.30044 18.1679 1.20676 17.3646C1.11714 16.5959 1.11716 15.6359 1.11719 14.4721L1.11719 14.4118C1.11719 13.8595 1.5649 13.4118 2.11719 13.4118C2.66947 13.4118 3.11719 13.8595 3.11719 14.4118C3.11719 15.651 3.11878 16.4938 3.19331 17.1329C3.26532 17.7506 3.39376 18.0485 3.55903 18.2538C3.64923 18.3659 3.75125 18.468 3.86334 18.5582C4.06873 18.7234 4.36658 18.8519 4.98424 18.9239C5.62339 18.9984 6.46616 19 7.70543 19H13.9995C15.442 19 16.4233 18.9979 17.1581 18.8991C17.8642 18.8042 18.1912 18.6368 18.4138 18.4142C18.6363 18.1916 18.8037 17.8646 18.8986 17.1586C18.9974 16.4237 18.9995 15.4425 18.9995 14V7.70589C18.9995 6.46662 18.9979 5.62385 18.9234 4.9847C18.8514 4.36704 18.723 4.06918 18.5577 3.8638C18.4675 3.75171 18.3655 3.64968 18.2534 3.55949C18.048 3.39421 17.7501 3.26578 17.1325 3.19376Z" fill="white"/>
</svg>
