<svg width="15" height="15" viewBox="0 0 15 15" fill="none" xmlns="http://www.w3.org/2000/svg">
<path d="M14.8275 7.32748C13.0446 7.01361 11.4016 6.15858 10.1215 4.8785C8.84141 3.59843 7.98638 1.95536 7.6725 0.172481C7.6725 0.12673 7.65432 0.0828652 7.62197 0.0505144C7.58962 0.0181636 7.54575 0 7.5 0C7.45425 0 7.41036 0.0181636 7.37801 0.0505144C7.34566 0.0828652 7.3275 0.12673 7.3275 0.172481C7.01362 1.95536 6.15857 3.59843 4.8785 4.8785C3.59842 6.15858 1.95538 7.01361 0.172505 7.32748C0.126754 7.32748 0.0828651 7.34567 0.0505143 7.37802C0.0181636 7.41037 0 7.45424 0 7.49999C0 7.54574 0.0181636 7.58963 0.0505143 7.62198C0.0828651 7.65433 0.126754 7.67249 0.172505 7.67249C1.95561 7.98584 3.59895 8.84071 4.87912 10.1209C6.15928 11.401 7.01415 13.0444 7.3275 14.8275C7.3275 14.8732 7.34566 14.9171 7.37801 14.9495C7.41036 14.9818 7.45425 15 7.5 15C7.54575 15 7.58962 14.9818 7.62197 14.9495C7.65432 14.9171 7.6725 14.8732 7.6725 14.8275C7.98638 13.0446 8.84141 11.4016 10.1215 10.1215C11.4016 8.84142 13.0446 7.98637 14.8275 7.67249C14.8732 7.67249 14.9171 7.65433 14.9495 7.62198C14.9818 7.58963 15 7.54574 15 7.49999C15 7.45424 14.9818 7.41037 14.9495 7.37802C14.9171 7.34567 14.8732 7.32748 14.8275 7.32748Z" fill="white"/>
</svg>
